<svg id="Layer_3" enable-background="new 0 0 64 64" height="512" viewBox="0 0 64 64" width="512" xmlns="http://www.w3.org/2000/svg">
  <g><path d="m42 17c0-5.514-4.486-10-10-10s-10 4.486-10 10 4.486 10 10 10 10-4.486 10-10zm-18 0c0-4.411 3.589-8 8-8s8 3.589 8 8-3.589 8-8 8-8-3.589-8-8z"/><path d="m49.99 36.273-8.849-1.264-5.141-.856v-2.153-1.382l2.641-1.32 1.138 1.137c.391.391 1.023.391 1.414 0l4.242-4.243c.391-.391.391-1.023 0-1.414l-1.137-1.137 1.32-2.641h1.382c.553 0 1-.448 1-1v-6c0-.552-.447-1-1-1h-1.382l-1.32-2.641 1.137-1.137c.391-.391.391-1.023 0-1.414l-4.242-4.243c-.391-.391-1.023-.391-1.414 0l-1.138 1.137-2.641-1.32v-1.382c0-.552-.447-1-1-1h-6c-.553 0-1 .448-1 1v1.382l-2.641 1.32-1.138-1.137c-.391-.391-1.023-.391-1.414 0l-4.242 4.243c-.391.391-.391 1.023 0 1.414l1.137 1.137-1.32 2.641h-1.382c-.553 0-1 .448-1 1v6c0 .552.447 1 1 1h1.382l1.32 2.641-1.137 1.137c-.391.391-.391 1.023 0 1.414l4.242 4.243c.391.391 1.023.391 1.414 0l1.138-1.137 2.641 1.32v1.382 2.153l-5.142.857-8.849 1.264c-3.425.49-6.009 3.469-6.009 6.93v18.796c0 .553.447 1 1 1h46c.553 0 1-.447 1-1v-18.796c0-3.461-2.584-6.44-6.01-6.931zm-14.439 13.404-.516-7.229 1.859 1.859zm-1.568 6.121-1.983 3.966-1.983-3.966.789-11.049c.366.16.769.251 1.194.251s.828-.091 1.194-.251zm-6.876-11.491 1.859-1.859-.516 7.229zm2.893-11.307h4v1.586l-2 2-2-2zm1 7.414 1-1 1 1v1.586c0 .552-.448 1-1 1s-1-.448-1-1zm6.609 1.78-4.195-4.194 1.929-1.929 4.294.716zm-12-15.007c-.385-.192-.849-.118-1.154.188l-.94.94-2.828-2.829.939-.94c.305-.304.38-.769.188-1.154l-1.919-3.838c-.17-.34-.516-.554-.895-.554h-1v-4h1c.379 0 .725-.214.895-.553l1.919-3.838c.192-.385.117-.85-.188-1.154l-.939-.94 2.828-2.829.94.94c.306.305.771.38 1.154.188l3.838-1.919c.339-.17.553-.516.553-.895v-1h4v1c0 .379.214.725.553.895l3.838 1.919c.384.191.849.117 1.154-.188l.94-.94 2.828 2.829-.939.94c-.305.304-.38.769-.188 1.154l1.919 3.838c.17.339.516.553.895.553h1v4h-1c-.379 0-.725.214-.895.553l-1.919 3.838c-.192.385-.117.85.188 1.154l.939.94-2.828 2.829-.94-.94c-.305-.304-.769-.378-1.154-.188l-3.838 1.919c-.339.17-.553.516-.553.895v1h-4v-1c0-.379-.214-.725-.553-.895zm3.048 8.884 1.929 1.929-4.195 4.194-2.027-5.407zm-18.657 7.133c0-2.472 1.846-4.601 4.293-4.95l8.053-1.15 2.7 7.201 2.984 11.938.005-.001c.018.071.038.141.07.206l2.277 4.552h-12.382v-15h-2v15h-6zm44 17.796h-7v-15h-2v15h-11.382l2.276-4.553c.033-.065.053-.136.07-.206l.005.001 2.984-11.938 2.7-7.201 8.053 1.15c2.447.35 4.293 2.479 4.293 4.95v17.797z"/></g></svg>
