<svg height="512pt" viewBox="0 -44 512 512" width="512pt" xmlns="http://www.w3.org/2000/svg"><g fill-rule="evenodd"><path d="m349.878906 63.019531 21.609375-21.609375 56.09375 56.09375-21.609375 21.609375c10.320313 16.449219 18.011719 34.71875 22.480469 54.214844h30.535156v39.664063c-188.5 0-217.476562 0-405.976562 0v-39.664063h30.535156c4.464844-19.5 12.164063-37.765625 22.480469-54.214844l-21.609375-21.609375 56.09375-56.09375 21.609375 21.609375c16.449218-10.320312 34.71875-18.011719 54.214844-22.480469v-30.539062h79.328124v30.535156c19.496094 4.472656 37.761719 12.164063 54.214844 22.484375zm0 0" fill="#95a1b4"/><path d="m349.742188 212.988281c0-51.769531-41.96875-93.738281-93.742188-93.738281-51.769531 0-93.742188 41.96875-93.742188 93.738281zm0 0" fill="#55b2ff"/><path d="m502 202.988281h-33.011719v-29.660156c0-5.523437-4.476562-10-10-10h-22.746093c-4.097657-14.90625-10.023438-29.195313-17.6875-42.65625l16.097656-16.097656c1.875-1.875 2.929687-4.421875 2.929687-7.070313 0-2.652344-1.054687-5.195312-2.929687-7.074218l-56.09375-56.09375c-3.902344-3.902344-10.234375-3.902344-14.140625 0l-16.101563 16.101562c-13.460937-7.667969-27.753906-13.59375-42.652344-17.691406v-22.746094c0-5.523438-4.476562-10-10-10h-79.328124c-5.523438 0-10 4.476562-10 10v22.746094c-14.902344 4.097656-29.195313 10.023437-42.65625 17.691406l-16.097657-16.101562c-3.90625-3.902344-10.238281-3.902344-14.144531 0l-56.09375 56.09375c-1.875 1.875-2.929688 4.417968-2.929688 7.070312s1.054688 5.195312 2.929688 7.070312l16.101562 16.101563c-7.671874 13.46875-13.597656 27.761719-17.691406 42.652344h-22.742187c-5.523438 0-10 4.480469-10 10v29.664062h-33.011719c-5.523438 0-10 4.480469-10 10 0 5.523438 4.476562 10 10 10h206c5.523438 0 10-4.476562 10-10 0-5.519531-4.476562-10-10-10h-43.121094c4.960938-41.472656 40.332032-73.738281 83.121094-73.738281s78.160156 32.265625 83.121094 73.738281h-43.121094c-5.523438 0-10 4.480469-10 10 0 5.523438 4.476562 10 10 10h206c5.523438 0 10-4.476562 10-10 0-5.519531-4.476562-10-10-10zm-246-93.738281c-53.828125 0-98.210938 41.214844-103.257812 93.738281h-89.730469v-19.660156h20.535156c4.664063 0 8.707031-3.222656 9.75-7.769531 4.144531-18.109375 11.28125-35.3125 21.203125-51.132813 2.476562-3.949219 1.898438-9.089843-1.398438-12.386719l-14.542968-14.539062 41.953125-41.949219 14.539062 14.539063c3.300781 3.296875 8.4375 3.875 12.386719 1.398437 15.804688-9.917969 33.007812-17.050781 51.132812-21.207031 4.542969-1.039062 7.765626-5.082031 7.765626-9.746094v-20.535156h59.328124v20.535156c0 4.664063 3.222657 8.707032 7.765626 9.75 18.121093 4.152344 35.328124 11.289063 51.136718 21.203125 3.949219 2.480469 9.085938 1.898438 12.382813-1.398437l14.539062-14.539063 41.953125 41.953125-14.539062 14.535156c-3.296875 3.300782-3.878906 8.4375-1.398438 12.386719 9.914063 15.804688 17.046875 33.007813 21.203125 51.136719 1.039063 4.542969 5.082031 7.765625 9.746094 7.765625h20.539063v19.664063h-89.734376c-5.046874-52.527344-49.429687-93.742188-103.257812-93.742188zm0 0"/><path d="m100.691406 279.871094h21.09375c11.835938 0 21.460938 9.628906 21.460938 21.464844 0 5.519531 4.480468 10 10 10 5.523437 0 10-4.480469 10-10 0-22.863282-18.597656-41.464844-41.460938-41.464844h-21.09375c-22.863281 0-41.464844 18.601562-41.464844 41.464844v76.511718c0 22.863282 18.601563 41.464844 41.464844 41.464844h21.09375c22.863282 0 41.460938-18.601562 41.460938-41.464844 0-5.519531-4.476563-10-10-10-5.519532 0-10 4.480469-10 10 0 11.835938-9.625 21.464844-21.460938 21.464844h-21.09375c-11.835937 0-21.464844-9.628906-21.464844-21.464844v-76.511718c0-11.835938 9.628907-21.464844 21.464844-21.464844zm0 0"/><path d="m324.886719 261.875c-4.398438-1.148438-9.023438.8125-11.246094 4.78125l-52.039063 92.761719-52.039062-92.761719c-2.226562-3.96875-6.851562-5.933594-11.25-4.78125-4.402344 1.148438-7.472656 5.125-7.472656 9.675781v136.082031c0 5.523438 4.476562 10 10 10 5.523437 0 10-4.476562 10-10v-97.820312l42.039062 74.9375c1.769532 3.152344 5.101563 5.105469 8.71875 5.105469 3.617188 0 6.953125-1.953125 8.722656-5.105469l42.039063-74.9375v97.820312c0 5.523438 4.476563 10 10 10s10-4.476562 10-10v-136.082031c0-4.550781-3.070313-8.527343-7.472656-9.675781zm0 0"/><path d="m405.710938 329.59375c-14.921876 0-27.0625-12.140625-27.0625-27.066406 0-14.921875 12.140624-27.0625 27.0625-27.0625 8.726562 0 16.964843 4.246094 22.046874 11.359375 3.207032 4.496093 9.453126 5.535156 13.945313 2.328125 4.496094-3.210938 5.539063-9.453125 2.328125-13.949219-8.824219-12.359375-23.148438-19.738281-38.320312-19.738281-25.949219 0-47.0625 21.113281-47.0625 47.0625 0 25.953125 21.113281 47.066406 47.0625 47.066406 14.921874 0 27.0625 12.136719 27.0625 27.058594 0 14.925781-12.140626 27.066406-27.0625 27.066406-10.09375 0-19.28125-5.558594-23.980469-14.5-2.566407-4.890625-8.613281-6.769531-13.5-4.203125-4.890625 2.570313-6.773438 8.613281-4.203125 13.503906 8.164062 15.542969 24.136718 25.199219 41.683594 25.199219 25.949218 0 47.0625-21.113281 47.0625-47.066406 0-25.949219-21.113282-47.058594-47.0625-47.058594zm0 0"/><path d="m266 212.988281c0-5.503906-4.492188-10-10-10s-10 4.496094-10 10c0 5.507813 4.492188 10 10 10s10-4.492187 10-10zm0 0"/></g></svg>