<svg height="448pt" viewBox="0 -3 448 447" width="448pt" xmlns="http://www.w3.org/2000/svg"><path d="m392 248.5c0 17.671875-14.328125 32-32 32s-32-14.328125-32-32 14.328125-32 32-32 32 14.328125 32 32zm0 0"/><path d="m120 248.5c0 17.671875-14.328125 32-32 32s-32-14.328125-32-32 14.328125-32 32-32 32 14.328125 32 32zm0 0"/><path d="m256 216.5c0 17.671875-14.328125 32-32 32s-32-14.328125-32-32 14.328125-32 32-32 32 14.328125 32 32zm0 0"/><path d="m128.222656 432.5c-5.316406-6.871094-8.207031-15.3125-8.222656-24v-80c.035156-8.09375 1.4375-16.125 4.144531-23.753906-1.375-.09375-2.738281-.246094-4.144531-.246094h-64c-11.234375-.03125-22.210938 3.355469-31.472656 9.710938-15.324219 10.425781-24.5078128 27.753906-24.527344 46.289062v32c.0273438 15.605469 9.117188 29.777344 23.289062 36.3125 2.773438 1.3125 5.699219 2.28125 8.710938 2.886719v-87.199219h16v88zm0 0"/><path d="m136.246094 440.5c-.085938-.0625-.15625-.144531-.246094-.207031v.207031zm0 0"/><path d="m305.433594 302.203125c-4.289063-8.007813-10.441406-14.867187-17.9375-20-.742188-.550781-1.523438-1.050781-2.335938-1.496094-8.78125-5.367187-18.871094-8.207031-29.160156-8.207031h-64c-30.929688 0-56 25.070312-56 56v80c0 13.253906 10.746094 24 24 24h8v-112h16v112h80v-112h16v112h8c13.253906 0 24-10.746094 24-24v-80c.003906-9.171875-2.253906-18.203125-6.566406-26.296875zm0 0"/><path d="m423.496094 314.226562c-9.265625-6.363281-20.253906-9.757812-31.496094-9.726562h-64c-1.398438 0-2.761719.152344-4.136719.246094 2.703125 7.632812 4.101563 15.660156 4.136719 23.753906v80c-.015625 8.6875-2.90625 17.128906-8.222656 24h80.222656v-88h16v87.199219c2.964844-.59375 5.84375-1.550781 8.574219-2.847657 14.242187-6.5 23.390625-20.699218 23.425781-36.351562v-32c-.019531-18.527344-9.191406-35.84375-24.503906-46.273438zm0 0"/><path d="m224 104.5c-32.714844-.066406-63.203125 16.566406-80.855469 44.113281-17.652343 27.542969-20.027343 62.191407-6.304687 91.886719h45.65625c-11.71875-20.171875-7.238282-45.84375 10.617187-60.855469 17.855469-15.007812 43.917969-15.007812 61.773438 0 17.855469 15.011719 22.335937 40.683594 10.617187 60.855469h45.695313c13.726562-29.703125 11.347656-64.359375-6.316407-91.90625-17.660156-27.546875-48.160156-44.171875-80.882812-44.09375zm0 0"/><path d="m416 168.5h-43.199219l-1.554687-6.007812c-3.53125-13.746094-9.03125-26.910157-16.316406-39.089844l-3.203126-5.351563 30.671876-30.726562c1.496093-1.488281 2.335937-3.511719 2.335937-5.621094s-.839844-4.132813-2.335937-5.617187l-33.972657-33.984376c-3.136719-2.992187-8.066406-2.992187-11.203125 0l-30.726562 30.726563-5.351563-3.199219c-12.195312-7.292968-25.375-12.789062-39.136719-16.328125l-6.007812-1.5625v-43.238281c0-4.417969-3.582031-8-8-8h-48c-4.417969 0-8 3.582031-8 8v43.199219l-6.007812 1.554687c-13.746094 3.535156-26.914063 9.027344-39.097657 16.308594l-5.351562 3.203125-30.71875-30.664063c-3.140625-3.015624-8.097657-3.015624-11.238281 0l-33.984376 33.972657c-1.496093 1.492187-2.339843 3.515625-2.339843 5.625 0 2.113281.84375 4.136719 2.339843 5.625l30.726563 30.726562-3.199219 5.351563c-7.289062 12.179687-12.785156 25.34375-16.320312 39.089844l-1.570313 6.007812h-43.238281c-4.417969 0-8 3.582031-8 8v48c0 4.417969 3.582031 8 8 8h10.824219c4.75-13.515625 15.304687-24.195312 28.765625-29.101562 13.460937-4.910157 28.410156-3.53125 40.746094 3.757812-.128907-2.214844-.335938-4.410156-.335938-6.65625 0-61.855469 50.144531-112 112-112s112 50.144531 112 112c0 2.246094-.207031 4.441406-.335938 6.65625 12.335938-7.289062 27.285157-8.667969 40.746094-3.757812 13.460938 4.90625 24.015625 15.585937 28.765625 29.101562h10.824219c4.417969 0 8-3.582031 8-8v-48c0-4.417969-3.582031-8-8-8zm0 0"/></svg>