<svg width="580" height="400" xmlns="http://www.w3.org/2000/svg">
 <!-- Created with Method Draw - http://github.com/duopixel/Method-Draw/ -->

 <g>
  <title>background</title>
  <rect fill="#fff" id="canvas_background" height="402" width="582" y="-1" x="-1"/>
  <g display="none" overflow="visible" y="0" x="0" height="100%" width="100%" id="canvasGrid">
   <rect fill="url(#gridpattern)" stroke-width="0" y="0" x="0" height="100%" width="100%"/>
  </g>
 </g>
 <g>
  <title>Layer 1</title>
  <g id="svg_83">
   <g transform="matrix(0.260417, 0, 0, 0.260417, 0, 0)" id="svg_5">
    <g id="svg_6">
     <path fill="#ffffff" id="svg_7" d="m1049.79541,789.55835c-0.755981,-0.790039 -7.736084,-7.830994 -19.758057,-11.446045c-11.151978,-3.352966 -28.829956,-4.254944 -49.697998,10.504028c-3.388977,2.396973 -4.194946,7.087036 -1.796997,10.476013c2.395996,3.388977 7.088989,4.192993 10.475037,1.796997c29.570984,-20.909973 49.064026,-1.802002 49.94696,-0.90802c2.87207,2.966064 7.604004,3.060059 10.593018,0.203003c3,-2.868958 3.107056,-7.625977 0.238037,-10.625977z"/>
    </g>
   </g>
   <g transform="matrix(0.260417, 0, 0, 0.260417, 0, 0)" id="svg_8">
    <g id="svg_9">
     <path fill="#ffffff" id="svg_10" d="m954.6604,846.981323c1.398987,-0.033936 -0.317993,-0.015991 0,0l0,0z"/>
    </g>
   </g>
   <g transform="matrix(0.260417, 0, 0, 0.260417, 0, 0)" id="svg_11">
    <g id="svg_12">
     <path fill="#ffffff" id="svg_13" d="m1138.321411,868.248352c7.084961,-11.824036 12.55603,-25.852966 16.383911,-41.997009c0.962036,-4.037964 -1.532959,-8.087036 -5.570923,-9.039001c-4.037964,-0.961975 -8.097046,1.53302 -9.04895,5.572021c-3.367065,14.198975 -8.077026,26.484985 -14.099121,36.795959c-24.387939,-14.319946 -44.281006,-12.517944 -61.708008,-12.605957l0,-18.417969c24.611084,-13.167053 43.410034,-35.844055 51.446045,-63.090027c15.411987,-1.673035 27.437012,-14.76001 27.437012,-30.613037l0,-8.799011c0,-14.349976 -9.849976,-26.434937 -23.137939,-29.84198c-0.059082,-45.510986 0.135986,-43.882996 -0.180054,-47.467957c4.159058,-1.744019 8.357056,-3.557007 12.596069,-5.44104c10.261963,46.880981 17.255859,103.484009 12.375977,150.812012c-0.421021,4.127991 2.574951,7.815979 6.703979,8.246948c4.129028,0.421021 7.825928,-2.584961 8.246948,-6.713989c5.217041,-50.661987 -2.484985,-111.907959 -13.838989,-161.022949c3.246948,-3.968018 5.120972,-9.009033 5.120972,-14.320007l0,-27.395996c0,-32.726013 -41.271973,-45.674988 -61.256958,-22.185974c-11.734009,-14.039063 -29.119995,-22.376038 -47.769043,-22.376038l-95.787964,0c-34.911987,0 -63.320984,28.398987 -63.320984,63.320984c0.112,60.660034 -0.254028,57.457031 0.330994,60.776001c-20.552979,60.176025 -34.226013,148.195007 2.414978,200.593994c-17.605957,17.116028 -28.057983,40.89502 -28.057983,66.317017l0,36.865967c0,8.979004 7.315002,16.284058 16.304016,16.284058l281.661987,0c8.989014,0 16.293945,-7.305054 16.293945,-16.284058l0,-36.865967c-0.000977,-28.388 -13.027954,-54.082031 -33.539917,-71.106995zm-37.668091,-104.916992c-8.528931,26.455017 -29.161987,48.040955 -56.005981,57.498962c-47.997925,16.940063 -100.35498,-9.470947 -115.838989,-57.498962c-5.533997,-17.062988 -4.338989,-26.607971 -4.338989,-71.638c36.926025,-0.130005 101.269043,-6.083008 180.523071,-36.945984c0,89.221985 1.031006,92.030945 -4.339111,108.583984zm-120.438965,92.170959l0,-20.351929c22.17804,7.727966 46.713989,7.776978 69.032959,0l0,20.361938c-1.429932,1.430054 -0.407959,0.40802 -30.94397,30.953979c-1.961975,1.962036 -5.164978,1.970032 -7.134949,0c-18.726013,-18.731934 -25.231018,-25.238953 -30.86499,-30.875c-0.004028,-0.003967 -0.003052,-0.00293 -0.006042,-0.005981c-0.026978,-0.027954 -0.055969,-0.055969 -0.083008,-0.083008zm139.809082,-143.225952c11.024902,6.152954 7.471924,18.725952 8.106934,22.576965c0,6.263 -3.667969,11.684021 -8.958984,14.218994c1.352051,-10.570984 0.669922,-16.482971 0.852051,-36.795959zm-222.079041,-100.608032c0,-26.63501 21.664978,-48.289978 48.289978,-48.289978l95.787964,0c17.426025,0 33.409058,9.619995 41.716064,25.10199c3.148926,5.858032 11.802979,5.046997 13.787964,-1.282959c6.543945,-20.651001 38.48999,-16.477051 38.48999,5.711975c0,7.029968 0,20.373962 0,27.396973c0,2.955994 -1.713989,5.642029 -4.369019,6.854004c-85.494995,39.054993 -166.810974,52.475037 -226.62793,48.981018c-4.028015,-0.270996 -7.075012,-3.610962 -7.075012,-7.546021c0,-8.307007 0,-49.651978 0,-56.927002zm11.493958,100.608032c0.184021,20.586975 -0.491943,26.283997 0.852051,36.796021c-5.291016,-2.545044 -8.947998,-7.956055 -8.947998,-14.218994c0.695984,-4.235046 -2.96405,-16.381042 8.095947,-22.577026zm-35.532959,265.197998c-0.700989,0 -1.27301,-0.561035 -1.27301,-1.252991l0,-36.866028c0,-30.765015 18.247986,-58.453003 46.065002,-70.755981c3.787964,-1.682983 5.510986,-6.122986 3.828003,-9.919983c-1.682983,-3.788025 -6.122986,-5.501038 -9.911011,-3.828003c-5.411011,2.394958 -10.502014,5.270996 -15.250977,8.567993c-31.130005,-45.878967 -19.487,-122.080994 -3.317017,-175.362c5.240967,3.10498 9.458008,3.119995 15.391968,3.367004l0,4.789978c-13.286987,3.416992 -23.127991,15.502014 -23.127991,29.842041l0,8.797974c0,15.843018 12.025024,28.929993 27.427002,30.603027c8.036987,27.245972 26.835999,49.922974 51.445984,63.099976l0,18.417969c-20.042969,0.083984 -0.971985,-0.125977 -20.932983,0.190063c-4.148987,0.25 -7.304993,3.807983 -7.054993,7.955933c0.260986,4.139038 3.817993,7.305054 7.955994,7.045044c19.692993,-0.297974 0.60498,-0.097046 20.302002,-0.160034c6.564026,6.564026 28.332031,28.332031 35.082031,35.083008c7.845947,7.919006 20.70697,7.764038 28.398926,0c6.713013,-6.713013 28.50708,-28.506958 35.083008,-35.083008c9.315063,0.046997 16.559082,-0.137939 21.023071,0.210022c40.198975,2.859009 71.787964,36.654968 71.787964,77.138977l0,36.866028c0.000977,2.476013 16.164063,0.659973 -282.922974,1.252991z"/>
    </g>
   </g>
   <g transform="matrix(0.260417, 0, 0, 0.260417, 0, 0)" id="svg_14">
    <g id="svg_15">
     <circle fill="#ffffff" id="svg_16" r="13.057007" cy="708.769329" cx="960.794379"/>
    </g>
   </g>
   <g transform="matrix(0.260417, 0, 0, 0.260417, 0, 0)" id="svg_17">
    <g id="svg_18">
     <circle fill="#ffffff" id="svg_19" r="13.057007" cy="708.769329" cx="1073.096379"/>
    </g>
   </g>
   <g transform="matrix(0.260417, 0, 0, 0.260417, 0, 0)" id="svg_20">
    <g id="svg_21">
     <path fill="#ffffff" id="svg_22" d="m1026.29834,756.11438l-14.03894,0c-3.097046,0 -5.618042,-2.52002 -5.618042,-5.618042l0,-50.845947c0,-4.151001 -3.36499,-7.515991 -7.515991,-7.515991s-7.515991,3.36499 -7.515991,7.515991l0,50.845947c0,11.38501 9.263,20.649048 20.649048,20.649048l14.03894,0c4.151001,0 7.515991,-3.36499 7.515991,-7.515991s-3.36499,-7.515015 -7.515015,-7.515015z"/>
    </g>
   </g>
   <g transform="matrix(0.260417, 0, 0, 0.260417, 0, 0)" id="svg_23">
    <g id="svg_24">
     <circle fill="#ffffff" id="svg_25" r="8.710999" cy="924.535329" cx="1014.736379"/>
    </g>
   </g>
   <g transform="matrix(0.260417, 0, 0, 0.260417, 0, 0)" id="svg_26">
    <g id="svg_27">
     <circle fill="#ffffff" id="svg_28" r="8.710999" cy="956.400329" cx="1014.736379"/>
    </g>
   </g>
   <g transform="matrix(0.260417, 0, 0, 0.260417, 0, 0)" id="svg_29">
    <g id="svg_30">
     <path fill="#ffffff" id="svg_31" d="m1330.878418,516.068359l-111.452026,0c-20.213013,0 -36.656982,16.44397 -36.656982,36.656982l0,182.356018c0,20.211975 16.44397,36.657043 36.656982,36.657043l1.251953,0l0,24.15094c0,11.872009 9.705078,18.966003 19.087036,18.966003c7.514038,0 14.098999,-4.322998 17.185059,-11.281006l13.891968,-31.313965c0.078003,-0.176025 0.160034,-0.351013 0.246948,-0.521973l59.789063,0c9.92395,0 19.231934,-3.933044 26.205933,-11.07605c2.900024,-2.968994 2.843018,-7.728027 -0.125977,-10.627991c-2.970947,-2.900024 -7.728027,-2.843994 -10.628052,0.125977c-4.121948,4.221985 -9.609863,6.546997 -15.451904,6.546997l-63.727051,0c-2.174072,0 -4.240967,0.94104 -5.668945,2.580994c-1.800049,2.067017 -3.274048,4.381042 -4.380127,6.876038l-13.891968,31.314026c-0.689941,1.555969 -1.850952,2.345947 -3.445923,2.345947c-0.165039,0 -4.05603,-0.043945 -4.05603,-3.934998l0,-31.665955c0,-4.151001 -3.364014,-7.516052 -7.515991,-7.516052l-8.766968,0c-11.924072,0 -21.626099,-9.700989 -21.626099,-21.625977l0,-182.356995c0,-11.924988 9.702026,-21.625977 21.626099,-21.625977l111.452026,0c11.92395,0 21.625977,9.700989 21.625977,21.625977l0,174.822021c0,4.151001 3.364014,7.515991 7.515991,7.515991s7.515991,-3.36499 7.515991,-7.515991l0,-174.822021c0,-20.212036 -16.444092,-36.656006 -36.656982,-36.656006z"/>
    </g>
   </g>
   <g transform="matrix(0.260417, 0, 0, 0.260417, 0, 0)" id="svg_32">
    <g id="svg_33">
     <path fill="#ffffff" id="svg_34" d="m1324.27832,548.34436l-101.541992,0c-4.151978,0 -7.515869,3.36499 -7.515869,7.515991s3.363892,7.515991 7.515869,7.515991l101.543091,0c4.151978,0 7.515991,-3.36499 7.515991,-7.515991s-3.36499,-7.515991 -7.51709,-7.515991z"/>
    </g>
   </g>
   <g transform="matrix(0.260417, 0, 0, 0.260417, 0, 0)" id="svg_35">
    <g id="svg_36">
     <path fill="#ffffff" id="svg_37" d="m1324.27832,575.523376l-101.541992,0c-4.151978,0 -7.515869,3.36499 -7.515869,7.515991s3.363892,7.515991 7.515869,7.515991l101.543091,0c4.151978,0 7.515991,-3.36499 7.515991,-7.515991s-3.36499,-7.515991 -7.51709,-7.515991z"/>
    </g>
   </g>
   <g transform="matrix(0.260417, 0, 0, 0.260417, 0, 0)" id="svg_38">
    <g id="svg_39">
     <path fill="#ffffff" id="svg_40" d="m1324.27832,602.703369l-14.362915,0c-4.151978,0 -7.515991,3.36499 -7.515991,7.515991s3.364014,7.515991 7.515991,7.515991l14.362915,0c4.1521,0 7.516113,-3.36499 7.516113,-7.515991s-3.364014,-7.515991 -7.516113,-7.515991z"/>
    </g>
   </g>
   <g transform="matrix(0.260417, 0, 0, 0.260417, 0, 0)" id="svg_41">
    <g id="svg_42">
     <path fill="#ffffff" id="svg_43" d="m1279.85437,602.703369l-57.118042,0c-4.151978,0 -7.515991,3.36499 -7.515991,7.515991s3.364014,7.515991 7.515991,7.515991l57.118042,0c4.151978,0 7.515991,-3.36499 7.515991,-7.515991s-3.36499,-7.515991 -7.515991,-7.515991z"/>
    </g>
   </g>
   <g transform="matrix(0.260417, 0, 0, 0.260417, 0, 0)" id="svg_44">
    <g id="svg_45">
     <path fill="#ffffff" id="svg_46" d="m1324.27832,629.882324l-101.541992,0c-4.151978,0 -7.515869,3.365051 -7.515869,7.516052s3.363892,7.515991 7.515869,7.515991l101.543091,0c4.151978,0 7.515991,-3.36499 7.515991,-7.515991s-3.36499,-7.516052 -7.51709,-7.516052z"/>
    </g>
   </g>
   <g transform="matrix(0.260417, 0, 0, 0.260417, 0, 0)" id="svg_47">
    <g id="svg_48">
     <path fill="#ffffff" id="svg_49" d="m1324.27832,657.06134l-101.541992,0c-4.151978,0 -7.515869,3.365051 -7.515869,7.516052s3.363892,7.515991 7.515869,7.515991l101.543091,0c4.151978,0 7.515991,-3.36499 7.515991,-7.515991s-3.36499,-7.516052 -7.51709,-7.516052z"/>
    </g>
   </g>
   <g transform="matrix(0.260417, 0, 0, 0.260417, 0, 0)" id="svg_50">
    <g id="svg_51">
     <path fill="#ffffff" id="svg_52" d="m1324.27832,684.240356l-101.541992,0c-4.151978,0 -7.515869,3.36499 -7.515869,7.515991s3.363892,7.515991 7.515869,7.515991l101.543091,0c4.151978,0 7.515991,-3.36499 7.515991,-7.515991s-3.36499,-7.515991 -7.51709,-7.515991z"/>
    </g>
   </g>
   <g transform="matrix(0.260417, 0, 0, 0.260417, 0, 0)" id="svg_53">
    <g id="svg_54">
     <path fill="#ffffff" id="svg_55" d="m1324.27832,711.419373l-35.406006,0c-4.151978,0 -7.515869,3.36499 -7.515869,7.515991s3.363892,7.515991 7.515869,7.515991l35.406006,0c4.1521,0 7.516113,-3.36499 7.516113,-7.515991s-3.364014,-7.515991 -7.516113,-7.515991z"/>
    </g>
   </g>
   <g transform="matrix(0.260417, 0, 0, 0.260417, 0, 0)" id="svg_56">
    <g id="svg_57">
     <path fill="#ffffff" id="svg_58" d="m1258.810425,711.419373l-36.075073,0c-4.151978,0 -7.515991,3.36499 -7.515991,7.515991s3.364014,7.515991 7.515991,7.515991l36.075073,0c4.151978,0 7.515991,-3.36499 7.515991,-7.515991s-3.364014,-7.515991 -7.515991,-7.515991z"/>
    </g>
   </g>
   <g transform="matrix(0.260417, 0, 0, 0.260417, 0, 0)" id="svg_59">
    <g id="svg_60">
     <path fill="#ffffff" id="svg_61" d="m1277.198364,819.504395c-21.682983,-0.954041 -42.632935,5.697998 -59.10498,17.21698c-32.346069,-12.263977 -31.995972,-13.070007 -35.991089,-13.070007c-6.73999,0 -12.221924,5.492004 -12.221924,12.243042c0,5.219971 1.946045,5.774963 17.43396,36.122925c-23.859985,46.758057 -5.776001,104.11499 40.730103,128.937012c3.66394,1.955017 8.214966,0.56897 10.167969,-3.090942c1.954956,-3.662048 0.569946,-8.215088 -3.091064,-10.169067c-40.787964,-21.768982 -55.124023,-72.468994 -32.756958,-111.932983c1.262939,-2.22699 1.305054,-4.942017 0.111938,-7.207031l-14.397949,-27.348999l28.414063,11.019043c2.442871,0.947021 5.206909,0.553955 7.286865,-1.041016c53.693115,-41.121948 130.790039,-1.643005 130.790039,64.671997l-0.001953,0.524048c-0.328003,48.876953 -44.130005,87.311951 -93.479004,79.916992c-4.104004,-0.614014 -7.93103,2.213989 -8.546997,6.317993c-0.61499,4.104004 2.213989,7.930969 6.317993,8.546997c58.214966,8.730957 110.349976,-36.522034 110.73999,-94.694031l0.001953,-0.612976c0,-50.971008 -41.452881,-94.192017 -92.402954,-96.349976z"/>
    </g>
   </g>
   <g transform="matrix(0.260417, 0, 0, 0.260417, 0, 0)" id="svg_62">
    <g id="svg_63">
     <circle fill="#ffffff" id="svg_64" r="9.871979" cy="969.989329" cx="1269.743379"/>
    </g>
   </g>
   <g transform="matrix(0.260417, 0, 0, 0.260417, 0, 0)" id="svg_65">
    <g id="svg_66">
     <path fill="#ffffff" id="svg_67" d="m1269.73938,846.971313c-4.151978,0 -7.515991,3.36499 -7.515991,7.515991l0,89.256042c0,4.151001 3.36499,7.515991 7.515991,7.515991c4.151978,0 7.515991,-3.36499 7.515991,-7.515991l0,-89.256042c-0.000977,-4.15094 -3.36499,-7.515991 -7.515991,-7.515991z"/>
    </g>
   </g>
   <g transform="matrix(0.260417, 0, 0, 0.260417, 0, 0)" id="svg_68"/>
   <g transform="matrix(0.260417, 0, 0, 0.260417, 0, 0)" id="svg_69"/>
   <g transform="matrix(0.260417, 0, 0, 0.260417, 0, 0)" id="svg_70"/>
   <g transform="matrix(0.260417, 0, 0, 0.260417, 0, 0)" id="svg_71"/>
   <g transform="matrix(0.260417, 0, 0, 0.260417, 0, 0)" id="svg_72"/>
   <g transform="matrix(0.260417, 0, 0, 0.260417, 0, 0)" id="svg_73"/>
   <g transform="matrix(0.260417, 0, 0, 0.260417, 0, 0)" id="svg_74"/>
   <g transform="matrix(0.260417, 0, 0, 0.260417, 0, 0)" id="svg_75"/>
   <g transform="matrix(0.260417, 0, 0, 0.260417, 0, 0)" id="svg_76"/>
   <g transform="matrix(0.260417, 0, 0, 0.260417, 0, 0)" id="svg_77"/>
   <g transform="matrix(0.260417, 0, 0, 0.260417, 0, 0)" id="svg_78"/>
   <g transform="matrix(0.260417, 0, 0, 0.260417, 0, 0)" id="svg_79"/>
   <g transform="matrix(0.260417, 0, 0, 0.260417, 0, 0)" id="svg_80"/>
   <g transform="matrix(0.260417, 0, 0, 0.260417, 0, 0)" id="svg_81"/>
   <g transform="matrix(0.260417, 0, 0, 0.260417, 0, 0)" id="svg_82"/>
  </g>
 </g>
</svg>