<svg id="Capa_1" enable-background="new 0 0 511.996 511.996" height="512" viewBox="0 0 511.996 511.996" width="512" xmlns="http://www.w3.org/2000/svg">
  <g><path d="m40.353 511.996h428.195c13.015 0 23.604-10.659 23.604-23.761v-12.053c0-6.067-4.921-11.004-10.97-11.004h-9.36c1.882-3.799 2.945-8.029 2.945-12.427v-156.499c0-15.596-12.688-28.285-28.284-28.285h-97.077c-4.143 0-7.5 3.358-7.5 7.5s3.357 7.5 7.5 7.5h97.077c7.325 0 13.284 5.959 13.284 13.285v156.499c0 5.502-3.5 10.48-8.623 12.427h-229.337c-5.29-2.026-8.636-7.106-8.636-12.427 0-15.342 0-141.27 0-156.499 0-7.325 5.96-13.285 13.285-13.285h87.95c4.143 0 7.5-3.358 7.5-7.5s-3.357-7.5-7.5-7.5h-55.218l-.016-19.279c17.179-12.574 29.077-31.932 31.736-54.099 19.515-1.711 34.036-17.268 34.036-35.4 0-12.417-6.299-23.904-16.102-30.579 1.042-2.496 1.622-5.231 1.622-8.101v-14.699c0-4.142-3.357-7.5-7.5-7.5s-7.5 3.358-7.5 7.5v14.701c0 3.26-2.599 6.156-6.375 6.094-10.322-.151-18.194-8.706-18.194-18.447 0-4.063-2.754-7.591-6.697-8.58-4.021-1.005-8.07.913-9.937 4.4-7.466 13.965-21.925 22.641-37.734 22.641h-85.865c-7.192 0-13.668-5.844-13.668-13.668v-55.177c0-23.586 19.188-42.774 42.774-42.774h75.654c17.569 0 20.542 7.759 22.232 16.404 1.999 10.223 11.572 17.311 22.287 16.487 7.525-.578 15.521 5.941 15.521 15.042v7.877c0 4.142 3.357 7.5 7.5 7.5s7.5-3.358 7.5-7.5v-7.877c0-18.073-15.671-31.228-31.672-29.998-3.174.252-5.868-1.611-6.416-4.41-3.753-19.194-15.84-28.525-36.953-28.525h-75.654c-31.856 0-57.774 25.917-57.774 57.774v55.176c0 7.854 3.177 14.979 8.311 20.162-7.256 6.847-11.698 16.362-11.698 26.173 0 18.063 14.473 33.647 34.031 35.313 2.587 21.77 14.057 41.242 31.681 54.002v19.365c-20.046 7.829-80.417 31.408-100.662 39.314-.042.016-.084.033-.126.05-21.04 8.659-43.685 33.472-43.685 67.487v116.669c-.001 11.31 9.199 20.511 20.508 20.511zm251.138-370.485c2.347-.247 4.709-.923 6.654-1.824 6.983 3.552 11.798 11.295 11.798 19.503 0 10.254-8.151 18.514-18.452 20.221zm-159.434 37.918c-10.305-1.668-18.452-9.918-18.452-20.144 0-7.176 4.422-14.39 11.004-18.316 3.241.699 5.482.649 7.448.649zm345.095 300.749v8.057c0 4.831-3.859 8.761-8.604 8.761h-264.16c-4.744 0-8.604-3.93-8.604-8.761v-8.057zm-250.696-212.211c-13.184 0-24.288 9.067-27.409 21.292l-19.789-19.789c.079-1.246.059 1.038.059-12.333 10.814 4.671 22.143 6.719 33.487 6.719 11.149 0 21.756-2.345 31.375-6.545l.009 10.656zm-79.399-82.797v-43.552h69.469c16.579 0 31.984-7.077 42.718-18.875 3.521 7.24 9.586 13.011 17.016 16.185.078.033.153.071.231.104v46.139c0 21.619-11 41.567-28.861 53.281-42.963 27.209-100.573-1.966-100.573-53.282zm23.247 96.561 27.866 27.865v14.33l-7.483 7.483c-.972.973-2.608.973-3.58 0l-40.445-40.444zm-135.46 93.086c0-28.912 20.51-47.873 34.334-53.592l62.228-24.303 45.093 45.093c5.873 5.873 14.888 6.704 21.671 2.465v108.271c0 4.137.989 8.521 2.923 12.427h-9.338c-6.049 0-10.971 4.937-10.971 11.004v12.053c0 3.108.623 6.132 1.662 8.761h-84.487c0-12.675 0-92.766 0-111.665 0-4.142-3.357-7.5-7.5-7.5s-7.5 3.358-7.5 7.5v18.416h-48.115zm0 43.93h48.115v18.667h-48.115zm0 33.667h48.115v44.583h-42.606c-3.037 0-5.509-2.472-5.509-5.509z"/><path d="m252.708 337.573c-4.419 2.214-7.164 6.66-7.164 11.603s2.745 9.389 7.165 11.604l17.314 8.675v41.11c0 6.947 3.741 13.281 9.764 16.528 32.483 17.514 71.824 17.477 104.238 0 1.959-1.057 3.672-2.444 5.099-4.069l-.498 1.9c-2.565 9.784 4.808 19.351 14.933 19.351h14.42c10.113 0 17.501-9.557 14.934-19.351 0 0 0 0 0-.001l-3.205-12.226c-1.557-5.939-5.881-10.574-11.438-12.773v-50.748c0-4.943-2.745-9.389-7.165-11.604l-70.289-35.218c-5.578-2.795-12.238-2.794-17.816 0zm158.06 75.948c2.44-.014 3.995 1.327 4.429 2.979l3.205 12.227c.073.282-.132.548-.424.548h-14.42c-.289 0-.498-.264-.423-.548l3.205-12.228c.436-1.661 1.949-2.995 4.428-2.978zm-16.979-44.066 9.479-4.75v35.21c-3.979 1.576-7.328 4.409-9.479 8.084zm-15 41.11c0 1.403-.739 2.708-1.883 3.325-28.035 15.117-62.023 15.086-90 0-1.144-.617-1.883-1.922-1.883-3.325v-33.595l37.975 19.027c5.461 2.738 12.126 2.851 17.816 0l37.975-19.027zm-44.694-94.799 51.712 25.91h-53.901c-4.143 0-7.5 3.358-7.5 7.5s3.357 7.5 7.5 7.5h53.903c-5.239 2.625-45.896 22.996-51.714 25.911-1.371.687-3.008.687-4.379 0l-66.682-33.411 66.682-33.41c1.371-.687 3.008-.687 4.379 0z"/></g>
</svg>
